<?xml version="1.0" encoding="UTF-8"?>
<svg xmlns="http://www.w3.org/2000/svg" xmlns:xlink="http://www.w3.org/1999/xlink" width="75pt" height="59pt" viewBox="0 0 75 59" version="1.1">
<g id="surface1">
<path style=" stroke:none;fill-rule:evenodd;fill:rgb(13.699341%,12.199402%,12.5%);fill-opacity:1;" d="M 48.894531 38.855469 L 48.953125 38.417969 L 48.519531 38.417969 L 48.035156 41.191406 L 48.5 41.1875 L 48.800781 39.53125 C 48.867188 39.152344 49.183594 38.890625 49.449219 38.789063 C 50.128906 38.53125 50.074219 39.277344 49.980469 39.738281 L 49.714844 41.1875 L 50.152344 41.1875 L 50.433594 39.789063 C 50.53125 39.324219 50.726563 38.910156 51.125 38.78125 C 51.820313 38.550781 51.730469 39.292969 51.648438 39.746094 L 51.378906 41.183594 L 51.839844 41.1875 L 52.113281 39.785156 C 52.195313 39.371094 52.210938 38.992188 52.183594 38.863281 C 52.03125 38.214844 51.308594 38.238281 50.863281 38.558594 C 50.679688 38.691406 50.652344 38.808594 50.519531 38.90625 C 50.367188 38.515625 50.308594 38.316406 49.785156 38.347656 C 49.410156 38.363281 49.230469 38.546875 49.03125 38.738281 L 48.894531 38.855469 "/>
<path style=" stroke:none;fill-rule:evenodd;fill:rgb(13.699341%,12.199402%,12.5%);fill-opacity:1;" d="M 58.507813 38.414063 L 58.453125 38.785156 L 58.808594 38.785156 L 58.363281 41.1875 L 58.847656 41.1875 L 59.292969 38.792969 L 60.289063 38.785156 L 59.847656 41.191406 L 60.3125 41.183594 L 60.859375 38.410156 L 59.378906 38.410156 C 59.398438 38.058594 59.542969 37.746094 59.757813 37.582031 C 60.0625 37.347656 60.398438 37.480469 60.746094 37.574219 L 60.878906 37.199219 C 60.226563 36.847656 59.316406 37.074219 59.007813 37.941406 C 58.820313 38.457031 59.078125 38.390625 58.507813 38.414063 "/>
<path style=" stroke:none;fill-rule:evenodd;fill:rgb(13.699341%,12.199402%,12.5%);fill-opacity:1;" d="M 53.207031 40.726563 C 53.257813 40.109375 53.472656 39.019531 54.097656 38.789063 C 55.425781 38.304688 54.882813 41.488281 53.207031 40.726563 Z M 53.507813 38.855469 L 53.558594 38.402344 L 53.15625 38.40625 L 52.417969 42.320313 L 52.894531 42.320313 L 53.113281 41.140625 C 53.738281 41.296875 54.078125 41.316406 54.578125 40.957031 C 55.796875 40.089844 55.5 37.8125 54.070313 38.433594 C 53.695313 38.59375 53.722656 38.722656 53.507813 38.855469 "/>
<path style=" stroke:none;fill-rule:evenodd;fill:rgb(13.699341%,12.199402%,12.5%);fill-opacity:1;" d="M 65.882813 38.816406 C 65.730469 40.945313 64.667969 41.117188 64.371094 40.621094 C 64.066406 40.117188 64.425781 38.421875 65.882813 38.816406 Z M 65.976563 38.414063 C 65.34375 38.34375 65.050781 38.273438 64.539063 38.65625 C 63.640625 39.324219 63.496094 40.84375 64.265625 41.183594 C 64.789063 41.417969 65.410156 41.035156 65.523438 40.703125 L 65.527344 41.1875 L 65.980469 41.183594 C 65.992188 40.953125 66.011719 40.699219 66.0625 40.433594 L 66.691406 37.109375 L 66.21875 37.121094 L 65.976563 38.414063 "/>
<path style=" stroke:none;fill-rule:evenodd;fill:rgb(13.699341%,12.199402%,12.5%);fill-opacity:1;" d="M 24.808594 40.601563 L 24.648438 41.007813 C 25.148438 41.292969 25.910156 41.355469 26.421875 41.023438 C 27.046875 40.621094 27.082031 39.84375 26.777344 39.457031 C 26.59375 39.222656 26.421875 39.128906 26.152344 38.96875 C 25.203125 38.40625 25.730469 37.820313 26.113281 37.710938 C 26.53125 37.59375 26.746094 37.753906 27.066406 37.84375 L 27.226563 37.460938 C 26.527344 37.011719 25.164063 37.296875 25.125 38.339844 C 25.082031 39.460938 26.78125 39.355469 26.414063 40.359375 C 26.242188 40.828125 25.660156 40.894531 25.214844 40.769531 L 24.808594 40.601563 "/>
<path style=" stroke:none;fill-rule:evenodd;fill:rgb(13.699341%,12.199402%,12.5%);fill-opacity:1;" d="M 44.144531 40.597656 L 43.972656 41.015625 C 44.535156 41.253906 45.144531 41.394531 45.726563 41.035156 C 45.9375 40.90625 46.136719 40.710938 46.226563 40.421875 C 46.332031 40.097656 46.285156 39.742188 46.125 39.488281 C 45.792969 38.980469 45.011719 38.921875 44.953125 38.382813 C 44.910156 38.007813 45.148438 37.804688 45.417969 37.71875 C 45.800781 37.59375 46.070313 37.738281 46.367188 37.839844 L 46.558594 37.433594 C 45.917969 37.246094 45.296875 37.109375 44.800781 37.597656 C 44.292969 38.097656 44.359375 38.777344 44.800781 39.121094 C 45.175781 39.414063 45.988281 39.648438 45.738281 40.347656 C 45.496094 41.035156 44.652344 40.832031 44.144531 40.597656 "/>
<path style=" stroke:none;fill-rule:evenodd;fill:rgb(13.699341%,12.199402%,12.5%);fill-opacity:1;" d="M 40.105469 42.042969 L 40.234375 42.445313 C 41.253906 42.230469 41.980469 40.546875 42.433594 39.589844 C 42.601563 39.238281 42.867188 38.789063 43.003906 38.410156 L 42.488281 38.410156 L 41.5 40.59375 L 41.09375 38.417969 L 40.59375 38.410156 C 40.734375 39.140625 40.90625 39.855469 41.046875 40.5625 C 41.160156 41.117188 41.210938 41.101563 40.882813 41.496094 C 40.636719 41.800781 40.511719 41.824219 40.105469 42.042969 "/>
<path style=" stroke:none;fill-rule:evenodd;fill:rgb(13.699341%,12.199402%,12.5%);fill-opacity:1;" d="M 34.308594 40.71875 L 34.25 41.1875 L 34.683594 41.183594 C 34.777344 40.785156 34.839844 40.21875 34.917969 39.808594 L 35.183594 38.410156 L 34.722656 38.414063 L 34.390625 39.957031 C 34.308594 40.335938 34.09375 40.65625 33.726563 40.796875 C 33.492188 40.890625 33.242188 40.816406 33.15625 40.648438 C 32.976563 40.3125 33.351563 38.992188 33.429688 38.410156 L 32.945313 38.410156 L 32.613281 40.265625 C 32.511719 40.84375 32.734375 41.304688 33.4375 41.242188 C 33.949219 41.199219 34.121094 40.835938 34.308594 40.71875 "/>
<path style=" stroke:none;fill-rule:evenodd;fill:rgb(13.699341%,12.199402%,12.5%);fill-opacity:1;" d="M 28.03125 39.59375 C 28.101563 39.296875 28.28125 39.019531 28.449219 38.898438 C 29.230469 38.335938 29.71875 39.203125 29.027344 39.472656 C 28.746094 39.582031 28.355469 39.59375 28.03125 39.59375 Z M 29.449219 41.015625 L 29.386719 40.683594 C 28.945313 40.804688 27.925781 41.234375 27.964844 39.964844 C 28.714844 39.960938 29.796875 39.921875 29.808594 39.082031 C 29.824219 38.175781 28.679688 38.191406 28.144531 38.671875 C 27.613281 39.15625 27.308594 39.933594 27.566406 40.640625 C 27.898438 41.542969 29.183594 41.25 29.449219 41.015625 "/>
<path style=" stroke:none;fill-rule:evenodd;fill:rgb(13.699341%,12.199402%,12.5%);fill-opacity:1;" d="M 61.726563 39.59375 C 61.824219 39.191406 62.402344 38.394531 62.925781 38.8125 C 63.0625 38.925781 63.175781 39.292969 62.722656 39.472656 C 62.425781 39.589844 62.0625 39.589844 61.726563 39.59375 Z M 63.144531 41.046875 L 63.089844 40.683594 C 62.777344 40.78125 62.40625 40.953125 62.046875 40.800781 C 61.789063 40.695313 61.574219 40.347656 61.6875 39.964844 C 62.421875 39.960938 63.496094 39.910156 63.507813 39.082031 C 63.523438 38.152344 62.328125 38.203125 61.835938 38.671875 C 60.695313 39.761719 60.933594 41.878906 63.144531 41.046875 "/>
<path style=" stroke:none;fill-rule:evenodd;fill:rgb(13.699341%,12.199402%,12.5%);fill-opacity:1;" d="M 31.949219 41.078125 L 31.886719 40.699219 C 29.925781 41.570313 30.296875 38.28125 32.214844 38.839844 L 32.371094 38.46875 C 29.910156 37.457031 29.019531 42.242188 31.949219 41.078125 "/>
<path style=" stroke:none;fill-rule:evenodd;fill:rgb(13.699341%,12.199402%,12.5%);fill-opacity:1;" d="M 39.34375 37.898438 L 39.246094 38.40625 L 38.871094 38.417969 L 38.789063 38.789063 L 39.171875 38.78125 L 38.929688 39.960938 C 38.578125 41.695313 39.78125 41.226563 39.785156 41.195313 L 39.828125 40.808594 C 39.089844 40.921875 39.375 40.285156 39.464844 39.78125 L 39.660156 38.800781 L 40.316406 38.785156 L 40.382813 38.417969 L 39.742188 38.410156 L 39.851563 37.765625 L 39.34375 37.898438 "/>
<path style=" stroke:none;fill-rule:evenodd;fill:rgb(13.699341%,12.199402%,12.5%);fill-opacity:1;" d="M 55.671875 41.183594 L 56.164063 41.191406 L 56.925781 37.117188 L 56.449219 37.117188 L 55.671875 41.183594 "/>
<path style=" stroke:none;fill-rule:evenodd;fill:rgb(13.699341%,12.199402%,12.5%);fill-opacity:1;" d="M 36.34375 38.976563 L 36.386719 38.410156 L 35.957031 38.414063 L 35.492188 41.191406 L 35.957031 41.183594 L 36.222656 39.886719 C 36.339844 39.296875 36.621094 38.777344 37.222656 38.824219 L 37.320313 38.355469 C 36.820313 38.328125 36.464844 38.597656 36.34375 38.976563 "/>
<path style=" stroke:none;fill-rule:evenodd;fill:rgb(13.699341%,12.199402%,12.5%);fill-opacity:1;" d="M 46.722656 41.191406 L 47.207031 41.191406 L 47.726563 38.410156 L 47.273438 38.414063 L 46.722656 41.191406 "/>
<path style=" stroke:none;fill-rule:evenodd;fill:rgb(13.699341%,12.199402%,12.5%);fill-opacity:1;" d="M 37.304688 41.191406 L 37.800781 41.183594 L 38.316406 38.410156 L 37.835938 38.410156 L 37.304688 41.191406 "/>
<path style=" stroke:none;fill-rule:evenodd;fill:rgb(13.699341%,12.199402%,12.5%);fill-opacity:1;" d="M 56.953125 41.191406 L 57.4375 41.191406 L 57.957031 38.410156 L 57.503906 38.414063 L 56.953125 41.191406 "/>
<path style=" stroke:none;fill-rule:evenodd;fill:rgb(13.699341%,12.199402%,12.5%);fill-opacity:1;" d="M 38.234375 37.339844 C 38.40625 37.339844 38.539063 37.476563 38.539063 37.644531 C 38.539063 37.816406 38.40625 37.953125 38.234375 37.953125 C 38.066406 37.953125 37.929688 37.816406 37.929688 37.644531 C 37.929688 37.476563 38.066406 37.339844 38.234375 37.339844 "/>
<path style=" stroke:none;fill-rule:evenodd;fill:rgb(13.699341%,12.199402%,12.5%);fill-opacity:1;" d="M 47.628906 37.339844 C 47.796875 37.339844 47.933594 37.476563 47.933594 37.644531 C 47.933594 37.816406 47.796875 37.953125 47.628906 37.953125 C 47.457031 37.953125 47.320313 37.816406 47.320313 37.644531 C 47.320313 37.476563 47.457031 37.339844 47.628906 37.339844 "/>
<path style=" stroke:none;fill-rule:evenodd;fill:rgb(13.699341%,12.199402%,12.5%);fill-opacity:1;" d="M 57.890625 37.339844 C 58.058594 37.339844 58.199219 37.476563 58.199219 37.644531 C 58.199219 37.816406 58.058594 37.953125 57.890625 37.953125 C 57.722656 37.953125 57.582031 37.816406 57.582031 37.644531 C 57.582031 37.476563 57.722656 37.339844 57.890625 37.339844 "/>
<path style=" stroke:none;fill-rule:evenodd;fill:rgb(94.499207%,35.299683%,13.299561%);fill-opacity:1;" d="M 6.632813 17.066406 L 68.167969 17.066406 C 69.34375 17.066406 70.308594 18.027344 70.308594 19.207031 L 70.308594 33.03125 C 70.308594 34.207031 69.34375 35.171875 68.167969 35.171875 L 6.632813 35.171875 C 5.453125 35.171875 4.488281 34.207031 4.488281 33.03125 L 4.488281 19.207031 C 4.488281 18.027344 5.453125 17.066406 6.632813 17.066406 "/>
<path style=" stroke:none;fill-rule:evenodd;fill:rgb(100%,100%,100%);fill-opacity:1;" d="M 11.757813 22.523438 C 15.109375 21.792969 15.578125 28.292969 12.601563 28.851563 C 9.234375 29.484375 8.769531 23.175781 11.757813 22.523438 Z M 15.878906 31.390625 L 16.316406 30.15625 L 14.054688 29.617188 C 14.09375 29.585938 14.058594 29.609375 14.136719 29.5625 C 14.664063 29.238281 14.835938 29.210938 15.320313 28.609375 C 16.507813 27.144531 16.5 24.679688 15.691406 23.179688 C 15.15625 22.1875 14.273438 21.484375 13.050781 21.261719 C 11.65625 21.003906 10.394531 21.410156 9.515625 22.183594 C 7.285156 24.148438 7.480469 29.398438 11.367188 30.125 C 11.738281 30.195313 12.023438 30.160156 12.382813 30.277344 C 12.445313 30.292969 12.535156 30.324219 12.648438 30.359375 L 15.878906 31.390625 "/>
<path style=" stroke:none;fill-rule:evenodd;fill:rgb(100%,100%,100%);fill-opacity:1;" d="M 43.332031 30.042969 C 43.632813 30.054688 44.699219 30.105469 44.871094 30.023438 C 44.996094 29.917969 44.84375 26.761719 44.933594 26.222656 L 48.574219 26.210938 L 48.582031 30.042969 L 50.164063 30.039063 L 50.171875 21.332031 L 48.585938 21.332031 L 48.582031 24.804688 L 44.914063 24.8125 L 44.914063 21.335938 L 43.351563 21.324219 L 43.332031 30.042969 "/>
<path style=" stroke:none;fill-rule:evenodd;fill:rgb(100%,100%,100%);fill-opacity:1;" d="M 34.035156 21.222656 L 34.039063 30.042969 L 35.609375 30.042969 L 35.636719 28.300781 L 36.164063 27.300781 L 37.960938 30.03125 L 39.875 30.039063 L 37.941406 27.261719 L 37.289063 26.328125 L 37.832031 25.691406 L 39.5625 23.753906 L 37.683594 23.75 L 36.144531 25.773438 L 35.636719 26.488281 L 35.636719 20.851563 L 34.035156 20.84375 L 34.035156 21.222656 "/>
<path style=" stroke:none;fill-rule:evenodd;fill:rgb(100%,100%,100%);fill-opacity:1;" d="M 21.804688 29.140625 C 21.828125 29.1875 21.820313 29.144531 21.839844 29.25 L 21.917969 30.039063 L 23.285156 30.035156 L 23.238281 26.902344 L 23.226563 23.75 L 21.671875 23.75 C 21.578125 23.984375 21.640625 26.433594 21.640625 26.902344 C 21.640625 27.484375 21.707031 27.824219 21.4375 28.265625 C 20.980469 29.015625 19.84375 29.140625 19.417969 28.34375 C 19.183594 27.90625 19.195313 27.503906 19.195313 26.945313 L 19.1875 23.757813 L 17.589844 23.746094 L 17.585938 26.613281 C 17.585938 27.535156 17.554688 28.453125 17.941406 29.160156 C 18.570313 30.300781 20.066406 30.417969 21.019531 29.859375 C 21.191406 29.761719 21.324219 29.648438 21.4375 29.539063 C 21.546875 29.433594 21.679688 29.230469 21.804688 29.140625 "/>
<path style=" stroke:none;fill-rule:evenodd;fill:rgb(100%,100%,100%);fill-opacity:1;" d="M 61.910156 26.96875 C 61.925781 27.652344 62.007813 28.285156 61.527344 28.691406 C 60.785156 29.320313 59.621094 29.085938 59.734375 28.015625 C 59.835938 27.070313 61.160156 26.925781 61.910156 26.96875 Z M 58.601563 24.128906 L 58.898438 25.191406 C 59.492188 24.945313 59.902344 24.695313 60.726563 24.734375 C 61.492188 24.769531 61.988281 25.289063 61.859375 25.933594 C 60.886719 25.964844 59.960938 26.035156 59.25 26.457031 C 57.515625 27.488281 57.925781 29.808594 59.664063 30.140625 C 60.324219 30.269531 61.070313 30.113281 61.578125 29.730469 C 61.828125 29.542969 61.878906 29.429688 62.011719 29.355469 L 62.128906 30.027344 L 63.558594 30.042969 C 63.539063 29.582031 63.476563 29.132813 63.46875 28.632813 C 63.4375 26.28125 63.957031 23.796875 61.09375 23.613281 C 60.628906 23.585938 60.148438 23.632813 59.726563 23.730469 C 59.238281 23.839844 59.011719 23.984375 58.601563 24.128906 "/>
<path style=" stroke:none;fill-rule:evenodd;fill:rgb(100%,100%,100%);fill-opacity:1;" d="M 55.816406 26.21875 L 53.058594 26.21875 C 53.160156 25.445313 53.609375 24.734375 54.429688 24.703125 C 55.351563 24.671875 55.804688 25.316406 55.816406 26.21875 Z M 56.945313 29.78125 L 56.734375 28.679688 C 56.109375 28.789063 55.257813 29.128906 54.335938 28.882813 C 53.574219 28.679688 53.113281 28.195313 53.054688 27.34375 L 57.257813 27.339844 C 57.441406 26.660156 57.222656 25.558594 56.96875 25.023438 C 55.96875 22.914063 52.785156 23.25 51.886719 25.308594 C 51.273438 26.714844 51.410156 28.46875 52.546875 29.445313 C 53.761719 30.488281 55.601563 30.210938 56.945313 29.78125 "/>
<path style=" stroke:none;fill-rule:evenodd;fill:rgb(100%,100%,100%);fill-opacity:1;" d="M 32.855469 29.824219 L 32.664063 28.679688 C 32.328125 28.722656 32.039063 28.878906 31.585938 28.902344 C 31.167969 28.925781 30.808594 28.859375 30.472656 28.6875 C 29.871094 28.386719 29.507813 27.757813 29.488281 26.945313 C 29.46875 26.125 29.78125 25.507813 30.359375 25.132813 C 31.144531 24.625 31.976563 24.929688 32.582031 25.066406 L 32.863281 23.871094 C 31.75 23.417969 30.265625 23.570313 29.347656 24.121094 C 27.300781 25.347656 27.394531 28.652344 29.304688 29.726563 C 29.78125 29.996094 30.359375 30.152344 31.019531 30.15625 C 31.359375 30.160156 32.558594 30.089844 32.855469 29.824219 "/>
<path style=" stroke:none;fill-rule:evenodd;fill:rgb(100%,100%,100%);fill-opacity:1;" d="M 25.773438 21.113281 C 26.253906 21.113281 26.644531 21.503906 26.644531 21.984375 C 26.644531 22.464844 26.253906 22.855469 25.773438 22.855469 C 25.289063 22.855469 24.902344 22.464844 24.902344 21.984375 C 24.902344 21.503906 25.289063 21.113281 25.773438 21.113281 "/>
<path style=" stroke:none;fill-rule:evenodd;fill:rgb(100%,100%,100%);fill-opacity:1;" d="M 24.960938 23.757813 L 26.515625 23.757813 L 26.515625 30.03125 L 24.960938 30.03125 L 24.960938 23.757813 "/>
<path style=" stroke:none;fill-rule:evenodd;fill:rgb(100%,100%,100%);fill-opacity:1;" d="M 43.332031 21.332031 L 44.910156 21.332031 L 44.910156 24.804688 L 48.570313 24.804688 L 48.570313 21.332031 L 50.148438 21.332031 L 50.148438 30.085938 L 48.570313 30.085938 L 48.570313 26.269531 L 44.910156 26.269531 L 44.910156 30.085938 L 43.332031 30.085938 L 43.332031 21.332031 "/>
<path style=" stroke:none;fill-rule:evenodd;fill:rgb(100%,100%,100%);fill-opacity:1;" d="M 65.140625 20.921875 L 66.714844 20.921875 L 66.714844 30.03125 L 65.140625 30.03125 L 65.140625 20.921875 "/>
<path style=" stroke:none;fill-rule:nonzero;fill:rgb(100%,100%,100%);fill-opacity:1;" d="M 67.71875 19.605469 C 67.851563 19.605469 67.980469 19.640625 68.109375 19.707031 C 68.234375 19.773438 68.332031 19.871094 68.402344 20 C 68.472656 20.125 68.507813 20.257813 68.507813 20.394531 C 68.507813 20.53125 68.472656 20.660156 68.402344 20.785156 C 68.335938 20.910156 68.238281 21.007813 68.113281 21.078125 C 67.988281 21.148438 67.855469 21.183594 67.71875 21.183594 C 67.582031 21.183594 67.453125 21.148438 67.328125 21.078125 C 67.203125 21.007813 67.105469 20.910156 67.035156 20.785156 C 66.964844 20.660156 66.929688 20.53125 66.929688 20.394531 C 66.929688 20.257813 66.964844 20.125 67.035156 20 C 67.109375 19.871094 67.207031 19.773438 67.332031 19.707031 C 67.460938 19.640625 67.589844 19.605469 67.71875 19.605469 Z M 67.71875 19.734375 C 67.609375 19.734375 67.5 19.765625 67.394531 19.820313 C 67.292969 19.878906 67.210938 19.960938 67.148438 20.066406 C 67.089844 20.167969 67.0625 20.28125 67.0625 20.394531 C 67.0625 20.507813 67.089844 20.617188 67.148438 20.722656 C 67.207031 20.824219 67.289063 20.90625 67.394531 20.964844 C 67.496094 21.023438 67.605469 21.050781 67.71875 21.050781 C 67.832031 21.050781 67.941406 21.023438 68.046875 20.964844 C 68.152344 20.90625 68.234375 20.824219 68.289063 20.722656 C 68.347656 20.617188 68.378906 20.507813 68.378906 20.394531 C 68.378906 20.28125 68.347656 20.167969 68.289063 20.066406 C 68.230469 19.960938 68.148438 19.878906 68.042969 19.820313 C 67.9375 19.765625 67.832031 19.734375 67.71875 19.734375 Z M 67.375 20.828125 L 67.375 19.980469 L 67.664063 19.980469 C 67.765625 19.980469 67.835938 19.988281 67.882813 20.003906 C 67.925781 20.019531 67.960938 20.046875 67.988281 20.085938 C 68.015625 20.125 68.027344 20.167969 68.027344 20.210938 C 68.027344 20.273438 68.007813 20.328125 67.960938 20.371094 C 67.917969 20.417969 67.859375 20.445313 67.785156 20.449219 C 67.816406 20.460938 67.839844 20.476563 67.855469 20.496094 C 67.890625 20.527344 67.933594 20.585938 67.984375 20.664063 L 68.085938 20.828125 L 67.921875 20.828125 L 67.84375 20.695313 C 67.785156 20.589844 67.738281 20.523438 67.699219 20.5 C 67.675781 20.480469 67.640625 20.46875 67.589844 20.46875 L 67.511719 20.46875 L 67.511719 20.828125 Z M 67.511719 20.351563 L 67.675781 20.351563 C 67.757813 20.351563 67.8125 20.339844 67.839844 20.316406 C 67.867188 20.292969 67.882813 20.261719 67.882813 20.222656 C 67.882813 20.199219 67.875 20.175781 67.863281 20.15625 C 67.847656 20.136719 67.828125 20.121094 67.804688 20.109375 C 67.777344 20.101563 67.734375 20.097656 67.667969 20.097656 L 67.511719 20.097656 L 67.511719 20.351563 "/>
</g>
</svg>
